<svg xmlns="http://www.w3.org/2000/svg" viewBox="0 0 512 512">
  <!-- Background with rounded corners -->
  <rect width="512" height="512" rx="96" fill="#7c6af0"/>

  <!-- Open book -->
  <!-- Spine -->
  <rect x="245" y="148" width="22" height="220" rx="5" fill="#fff" opacity="0.95"/>

  <!-- Left page -->
  <path d="M241 158 C194 158 128 172 100 194 L100 362 C128 346 194 336 241 342 Z"
        fill="#fff" opacity="0.92"/>

  <!-- Right page -->
  <path d="M267 158 C314 158 380 172 408 194 L408 362 C380 346 314 336 267 342 Z"
        fill="#fff" opacity="0.78"/>

  <!-- Lines on left page -->
  <line x1="118" y1="220" x2="236" y2="214" stroke="#7c6af0" stroke-width="10" stroke-linecap="round" opacity="0.35"/>
  <line x1="118" y1="246" x2="236" y2="242" stroke="#7c6af0" stroke-width="10" stroke-linecap="round" opacity="0.35"/>
  <line x1="118" y1="272" x2="236" y2="270" stroke="#7c6af0" stroke-width="10" stroke-linecap="round" opacity="0.35"/>
  <line x1="118" y1="298" x2="236" y2="298" stroke="#7c6af0" stroke-width="10" stroke-linecap="round" opacity="0.35"/>
  <line x1="118" y1="324" x2="200" y2="324" stroke="#7c6af0" stroke-width="10" stroke-linecap="round" opacity="0.35"/>
</svg>
